<?xml version="1.0" encoding="utf-8"?>
<!-- Generator: Adobe Illustrator 19.2.1, SVG Export Plug-In . SVG Version: 6.00 Build 0)  -->
<svg version="1.1" id="Layer_1" xmlns="http://www.w3.org/2000/svg" xmlns:xlink="http://www.w3.org/1999/xlink" x="0px" y="0px"
	 viewBox="0 0 336 145.8" style="enable-background:new 0 0 336 145.8;" xml:space="preserve">
<style type="text/css">
	.st0{clip-path:url(#SVGID_2_);fill:#ffffff;}
</style>
<g>
	<defs>
		<rect id="SVGID_1_" width="336" height="145.8"/>
	</defs>
	<clipPath id="SVGID_2_">
		<use xlink:href="#SVGID_1_"  style="overflow:visible;"/>
	</clipPath>
	<path class="st0" d="M276.6,111c11.3,1.1,22.5,4,31.9,7.1V93.9L336,54.6h-32.3l-11.1,15.8l-11.1-15.8h-32.3l27.5,39.3V111z"/>
	<path class="st0" d="M214.2,98.6c4.5,0,7.8,2.1,9.9,6.3c0.9,1.8,1.6,4.1,2.3,6.7c9-1.2,17-1.7,22-1.9c0,0,4.5-0.2,8.7-0.1
		c0.6,0,0.7,0,1,0c-2.4-7-6-13.6-10.7-18.8c5.5-3.7,8.2-8.9,8.2-15.4c0-6-2.3-10.9-7-14.9c-4.7-4-11.1-6-19.2-6h-47.1v63.3
		c9-1.5,19.7-3.4,31.9-4.8V98.6z M214.2,69.9h1.9c2.7,0,4.6,0.7,5.8,2.1c1.2,1.4,1.7,3,1.7,4.8c0,4.4-2.9,6.5-8.6,6.5h-0.9V69.9z"/>
	<path class="st0" d="M73.8,121.3c0.8-0.3,2.7-1.2,3.5-1.6c6.1-3,10.7-7.3,13.9-12.7c3.2-5.5,4.7-11.3,4.7-17.4
		c0-9.6-3.5-17.9-10.4-24.7c-7-6.8-16.8-10.3-29.6-10.3H20.4v54C33,113,50.6,118,73.8,121.3 M52.3,79.5h2c6.5,0,9.7,2.7,9.7,8
		c0,3-0.9,5.1-2.6,6.4c-1.7,1.3-4.5,1.9-8.3,1.9h-0.8V79.5z"/>
	<path class="st0" d="M167.5,64c-7.9-7-17.4-10.4-28.8-10.4c-11.3,0-20.9,3.5-28.7,10.4c-7.9,7-11.8,15.4-11.8,25.5
		c0,10.1,3.9,18.6,11.8,25.6c4.9,4.3,11,7.8,17.2,9.4c10.2-0.3,18.8-1.1,29.7-2.4c0.1,0,0.3-0.1,0.4-0.2c3.6-1.7,7.2-4.1,10.2-6.8
		c7.9-7,11.8-15.5,11.8-25.6C179.3,79.4,175.4,70.9,167.5,64 M152.2,88.3C152.2,88.3,152.2,88.2,152.2,88.3c-3,9-10.4,8.2-10.4,8.2
		c-6.6-0.1-9.6-6.5-9.6-6.5l-7.7,6c0,0,1.6-2.4,1.6-7.7c0-5-1.6-7.7-1.6-7.7l7.7,6c0,0,3-6.4,9.6-6.5
		C141.8,80,149.2,79.2,152.2,88.3C152.2,88.2,152.2,88.2,152.2,88.3L152.2,88.3z"/>
	<polygon class="st0" points="20.4,28.7 37.8,28.7 37.8,33.8 29.7,33.8 29.7,37.5 35.7,37.5 35.7,42.7 29.7,42.7 29.7,49.2
		20.4,49.2 	"/>
	<rect x="39" y="28.7" class="st0" width="9.3" height="20.5"/>
	<polygon class="st0" points="50.1,28.7 56.8,28.7 61.6,35.5 61.7,35.5 61.7,28.7 71,28.7 71,49.2 64,49.2 59.5,43 59.4,43
		59.4,49.2 50.1,49.2 	"/>
	<path class="st0" d="M83.2,28.7c8.9,0,11.7,6,11.7,10.3c0,4.1-2.7,10.2-11.9,10.2H72.8V28.7H83.2z M82.1,41.3h0.2
		c2.2,0,3.2-0.7,3.2-2.4c0-1.4-0.8-2.4-2.8-2.4h-0.6V41.3z"/>
	<rect x="96.2" y="28.7" class="st0" width="9.3" height="20.5"/>
	<polygon class="st0" points="107.3,28.7 114,28.7 118.9,35.5 118.9,35.5 118.9,28.7 128.2,28.7 128.2,49.2 121.2,49.2 116.7,43
		116.6,43 116.6,49.2 107.3,49.2 	"/>
	<path class="st0" d="M146.8,37.3c-1.8-0.9-3.6-1.3-5.2-1.3c-2.1,0-3.5,1.2-3.5,2.9c0,1.7,1.1,2.5,3.4,2.5v-3.2h9.3v11
		c-2,0.1-6.5,0.3-7.7,0.3c-4.6,0-8.2-0.8-10.5-3c-2.2-2.1-3.2-4.7-3.2-7.6c0-5.1,3.4-10.5,11.7-10.5c3.5,0,7.3,1,10.2,2.7
		L146.8,37.3z"/>
	<path class="st0" d="M332,133.7c-20.6-13-45.1-17.5-62.5-19c-4.1-0.4-11.2-1-18.2-0.7c-2.1,0-4.6,0.2-7.3,0.4
		c-3.1,0.2-6.9,0.6-11.1,1.1c-10.8,1.2-23,2.9-32.6,4.6c-25.6,4.3-33.8,5.4-33.8,5.4C69.6,140.3,0,105,0,105
		c49.9,39.5,117.5,39.5,117.5,39.5c29.3,1.2,64.5-6.9,79.4-10.8c8.4-2,27.5-6.4,35.8-7.9l-0.2,0C295,115.6,324.4,129.3,332,133.7"/>
	<path class="st0" d="M93.7,16.7c0.7,0.1,1.4,0.1,2.1,0.2l0.2,0.8c-1.1-0.1-2.3-0.1-3.4-0.1c-1.1,0-2.2,0-3.3,0.1l0.2-0.8
		c0.6-0.1,1.1-0.1,1.7-0.2c0.1-1,0.1-4.1,0.1-5.5v-0.7c0-0.5,0-3.1-0.1-3.9c-0.6-0.1-1.2-0.1-1.7-0.2l-0.1-0.8l4.1,0
		c1.8,0,3.3,0.1,4.2,0.5c1.6,0.7,1.8,1.8,1.8,2.2c0,2.9-2.8,4.2-5.2,4.5l0.1-0.9c1.5-0.4,2.6-1.2,2.6-3c0-0.9-0.5-1.6-1.2-2
		c-0.4-0.2-1.1-0.3-1.8-0.3c0,0.7-0.1,2.7-0.1,4v0.7C93.7,12.5,93.7,15.8,93.7,16.7"/>
	<path class="st0" d="M105.5,16.7c0.6,0.1,1.1,0.1,1.7,0.2l0.2,0.8c-1.2-0.1-2.4-0.1-3.5-0.1c-1,0-1.9,0-2.8,0.1l0.2-0.8
		c0.6,0,1.1-0.1,1.7-0.2c0.1-0.9,0.1-3.6,0.1-5.1v-1c0-0.5,0-3.1-0.1-4c-0.6-0.1-1.1-0.2-1.7-0.2L101,5.6c1.2,0.1,2.4,0.1,3.6,0.1
		c0.9,0,1.9,0,2.8-0.1l-0.2,0.8c-0.6,0.1-1.1,0.2-1.7,0.2c0,0.6-0.1,2.2-0.1,4v1C105.4,13.7,105.4,16.1,105.5,16.7"/>
	<path class="st0" d="M117.3,15c-0.9-1-1.6-2-2-2.5c-0.6,0.8-2,3-2.7,4.3c0.4,0.1,0.8,0.1,1.2,0.2l0.1,0.8h-0.3
		c-0.3,0-1.7-0.1-2.6-0.1c-0.7,0-1.4,0-2.1,0.1l0.3-0.8c0.4-0.1,0.8-0.1,1.1-0.2c0.7-0.5,3.5-4.2,4.2-5.1c-0.6-0.7-1.3-1.7-2.1-2.7
		c-0.7-1-1.4-1.8-1.8-2.2c-0.4-0.1-0.8-0.2-1.1-0.2l-0.1-0.8c0.9,0.2,1.9,0.1,2.8,0.1c1,0,2.1,0,3.1-0.1L115,6.5
		c-0.4,0-0.8,0.1-1.2,0.2c0.5,0.7,1.6,2.5,2.2,3.2c0.6-0.8,1.7-2.4,2.2-3.2l-0.3-0.1c-0.2,0-0.5-0.1-0.7-0.1L117,5.6
		c0.9,0.1,1.7,0.1,2.6,0.1c0.7,0,1.3,0,2-0.1l-0.1,0.8c-0.4,0.1-0.8,0.2-1.2,0.3l-0.1,0.1c-0.6,0.5-1.1,1.1-1.6,1.7
		c-0.8,0.9-1.5,1.8-1.9,2.2c1.8,2.5,3.6,5,5.4,7.4l-1.3,0.3C119.5,17.5,118.3,16.2,117.3,15"/>
	<path class="st0" d="M132.2,16.7c-0.5-1.5-0.9-3-1.6-4.4c-0.7,0-2.7,0.1-3.5,0.2c-0.2,0.6-0.9,3-1.1,4.2c0.4,0.1,0.9,0.1,1.3,0.2
		l0.2,0.8c-1-0.1-2-0.1-2.9-0.1c-0.7,0-1.5,0-2.2,0.1l0.1-0.8c0.5,0,1-0.1,1.5-0.2c0.6-1.3,3.3-8.5,3.9-10.1
		c-0.4-0.1-0.8-0.1-1.2-0.2l0-0.8c0.8,0.1,1.7,0.1,2.5,0.1c1.1,0,2.2,0,3.2-0.1l-0.1,0.8c-0.4,0-0.8,0.1-1.2,0.2
		c0.3,0.9,1.1,3.2,1.6,4.7c0.4,1.2,1.4,3.9,2.2,5.3c0.5,0.1,1,0.2,1.5,0.2l0.1,0.9c-1-0.2-2.2-0.1-3.2-0.1c-1,0-2.1,0-3.1,0.1
		l0.2-0.8C131.2,16.9,131.7,16.8,132.2,16.7 M129,7.4c-0.5,1.3-1.1,3.1-1.4,3.9l2.8,0.1C130,10.4,129.4,8.5,129,7.4"/>
	<path class="st0" d="M139.7,6.7c-0.6-0.1-1.2-0.1-1.7-0.2l-0.1-0.8l4,0c1.5,0,3.7,0,4.9,0.5c0.9,0.4,1.6,1.1,1.6,2.1
		c0,1.1-1.2,2.4-2.4,3.2c1.2,2,3.4,5,4.8,6.6l-1.4,0.2c-1.2-0.5-4.8-4.6-5.8-5.9c-0.5,0-0.9,0.1-1.2,0.1v0.2c0,1,0,3.2,0.1,4.1
		c0.6,0.1,1.1,0.1,1.7,0.2l0.2,0.8c-1-0.1-2.1-0.1-3.1-0.1c-1.1,0-2.2,0-3.2,0.1l0.2-0.8c0.6,0,1.2-0.1,1.7-0.2
		c0.1-0.8,0.1-3.6,0.1-5.2v-1C139.7,10,139.7,7.4,139.7,6.7 M143.9,11.1c0.7-0.2,1.7-0.9,1.7-2.4c0-0.8-0.7-2-3.3-2.1
		c0,0.9-0.1,3.5-0.1,4.5v0.3C142.7,11.4,143.3,11.3,143.9,11.1"/>
	<path class="st0" d="M83.1,12.5c0-0.5,0.4-1,1-1c0.5,0,1,0.4,1,1c0,0.5-0.4,1-1,1C83.5,13.5,83.1,13.1,83.1,12.5"/>
	<path class="st0" d="M44,10.7c-0.1-0.4-0.3-0.8-0.8-0.9c-0.3,0.1-0.4,0.3-0.5,0.5c-0.3,1.9-0.4,4-0.4,6c0,0.7-0.1,1.7,0.8,1.9
		c0.4,0.1,0.8,0,1.2-0.3c0.1-2.3-0.1-4.5-0.2-6.7C44.1,11,44.1,10.8,44,10.7"/>
	<path class="st0" d="M67.9,11.7c0.4,0,1.5,0,2.1-0.4c0.1-0.7-0.5-1.3-1.1-1.5c-1.8-0.1-3.5,0.3-5.3,0.5c-0.2,0-0.5,0.1-0.5,0.3
		c0.1,0.8,0.9,0.9,1.5,1.1l0,0.1l-0.5,1.4l-0.1,0l-0.2,0c0,0-0.1,0-0.2,0c-0.2,0.1-0.4,0.2-0.4,0.4c0.6,1.1-0.6,1.9-0.4,3
		c0.1,0.7,0.5,1.5,1.1,1.9c0.1,0,0.2,0.1,0.4,0.1c1.7,0.2,3.2-0.8,4.5-1.8c0.1-0.3-0.1-0.7-0.3-1c-1.2-0.3-2.4,0.3-3.7,0.4l0,0
		l-0.1,0c0.1-0.3,0.4-1,0.6-1.8c0.2,0,0.5,0,0.7,0c0.3,0,0.5,0,0.7,0c0.6,0,1.2,0.1,1.7-0.3c0.1-0.1,0.1-0.1,0.1-0.2
		c0-0.2,0.1-0.6-0.1-0.9c-0.7-0.3-1.7-0.1-2.5-0.1l-0.1,0l0.4-1.2L67.9,11.7z"/>
	<path class="st0" d="M77.5,10.7c-0.1-0.1-0.1-0.1-0.2-0.2c-0.2-0.2-0.4-0.3-0.7-0.3c-0.2,0-0.5,0.1-0.6,0.2c-1,0.6-1.8,1.4-2.6,2.3
		c0,0,0,0,0,0c-0.5,0.6-1.1,1.4-1.8,2.5c-0.2-0.2-0.2-0.6-0.2-0.9c0.2-1.8,2-3,1.8-4.9c-0.3,0-0.6,0.3-0.8,0.5
		c-0.1,0.1-0.2,0.2-0.3,0.3c-1.3,1.6-2.3,3.4-2,5.6c0,0.3,0.2,0.6,0.3,0.9c0.1,0.1,0.1,0.2,0.2,0.3c-0.3,0.6-0.6,1.3-0.8,2
		c-0.3,1.2-0.7,2.3-0.9,3.6c-0.1,0.3-0.1,0.8-0.1,1.3c0,0.1,0,0.3,0.1,0.4c0.3,0.6,1,1.3,1.7,1.2c0.2-1.6,0.6-3.1,1-4.6
		c0.2-0.8,0.5-1.6,0.9-2.6c0.9,0.2,1.6-0.1,1.6-0.1c1.9-0.7,3.7-2.4,4.1-4.4C78.5,12.7,78.2,11.6,77.5,10.7 M77.1,12.8L77.1,12.8
		c0,0.9-0.4,1.8-1.1,2.4c-0.7,0.6-1.5,1-2.5,1c0-0.1,0.1-0.2,0.1-0.2c0.2-0.4,0.4-0.7,0.6-1.1c0.5-0.8,1.1-1.7,1.8-2.4
		c0,0,0,0,0.1-0.1c0,0,0,0,0,0c0.1-0.2,0.3-0.3,0.4-0.4c0,0,0.1-0.1,0.1,0l0,0c0.2,0,0.2,0.2,0.3,0.4C77.1,12.3,77.1,12.6,77.1,12.8
		L77.1,12.8z"/>
	<path class="st0" d="M48.4,3.5L48.4,3.5c0,0-0.1-0.1-0.1-0.1h0c0,0-0.2-0.2-0.6-0.3c0,0-0.1,0-0.1,0c-0.2,0-0.3,0-0.4,0
		c0,0-0.1,0-0.1,0c-0.1-0.4-0.5-0.6-0.5-0.6c-0.3-0.2-0.6-0.2-0.9-0.3l0,0C45,2,44.4,2.1,44,2.2c-0.3,0.1-0.6,0.2-0.8,0.3
		c-1.7,0.8-2.3,1.8-2.6,2.4c0,0,0,0,0,0c0,0.1,0,0.1-0.1,0.2c0,0.1,0,0.2-0.1,0.2c-0.2,0.7,0,1.5,0.6,2.1c0,0.1,0,0.3,0,0.5
		c0,0.1,0,0.2,0.1,0.4c0,0.1,0.1,0.2,0.1,0.3c0.1,0.3,0.2,0.4,0.5,0.4c0.4,0,0.6-0.6,0.7-0.7c0.7,0.2,1.6,0.4,2.4,0.1
		c0.6-0.2,1-0.4,1.5-0.7c0.8-0.5,1.6-1.2,2.1-2.1c0.2-0.3,0.2-0.6,0.3-0.8C48.8,4.2,48.7,3.8,48.4,3.5 M41.7,6c0,0-0.1,0.1-0.1,0.1
		c-0.2-0.1-0.1-0.4-0.1-0.6c0-0.2,0.1-0.3,0.1-0.3C41.8,5,42,4.8,42.2,4.6c0.3-0.3,0.6-0.5,0.9-0.7c0.1,0,0.2-0.1,0.2-0.1
		c0,0,0,0,0,0c0.1,0,0.3-0.1,0.6-0.1h0c0.1,0,0.1,0,0.2,0C43,4.6,42,5.6,41.7,6 M46.5,6.1c-0.3,0.2-0.5,0.3-0.8,0.4
		C44.8,6.9,44,7,43.1,6.9c0.7-1.2,1.9-2.3,3.2-2.8C46.4,4,46.5,4,46.6,4c0.4,0,0.8-0.1,0.9,0.4C47.7,5.1,47.1,5.7,46.5,6.1"/>
	<path class="st0" d="M60.3,9.4c-0.2-0.3-0.7-1-1.2-1c-0.2,0.1-0.2,0.4-0.2,0.6c0.4,2,1.2,3.7,1.2,5.8c0,0.1,0,0.2,0,0.3
		c0,0.1-0.1,0.2-0.2,0.2c-1.2-1.6-2-3.4-3.4-4.8c-0.1-0.1-0.1-0.1-0.1-0.1c-0.2-0.1-0.4,0-0.6,0.2c0,0.1-0.1,0.2-0.2,0.4
		c-0.5,1.1-0.7,2.3-0.8,3.4c-0.1,0.6-0.4,2.3,0.1,3.2c0.2,0.3,0.5,0.7,0.9,0.6c0.3,0,0.5-0.4,0.6-0.6l0.3-4.8l0.1,0.2
		c1,1.6,1.5,3.4,3,4.6c0.2,0.1,0.5,0.1,0.7,0c0.2-0.1,0.4-0.1,0.5-0.3c0.5-0.4,0.8-1.2,0.9-1.8C62.1,13.2,61.6,11.1,60.3,9.4"/>
	<path class="st0" d="M53.9,10.3c0,0,0-0.1-0.1-0.1c0,0-0.1,0-0.1-0.1c-2.3-0.9-5.4-0.7-7.5,0.5c-0.6,0.3-0.9,0.9-1,1.6
		c0,0.1,0,0.4,0.1,0.7c0.1,0.2,0.3,0.3,0.4,0.4c0,0,0.1,0,0.1,0c0.7,0.1,1.4,0.2,2.2,0.2c0.4,0,0.6,0,0.6,0c1.4,0.1,2,0.3,2,0.3h0
		c0.6,0.2,1.3,0.3,1.5,1c0,0,0,0,0,0.1c-0.5,0.8-1.9,1-2.8,1.2c-0.6,0.1-2.2,0.3-2.9-0.3c-0.1-0.1-0.1-0.2-0.1-0.3c0,0,0,0,0,0v0
		c0-0.1,0-0.2,0.1-0.3c0,0,0-0.1,0.1-0.1c1-0.6,2.2,0.7,3.2,0.5c1-0.1,1.3-0.3,1.4-0.6c0.1-0.2,0-0.3,0-0.3
		c-0.4-0.3-1.2-0.5-1.8-0.7c-0.9-0.1-2.2-0.3-3.2,0.2c0,0-0.2,0.1-0.3,0.3c-0.2,0.3-0.3,0.6-0.3,0.9c0,0.1,0,0.1,0,0.3
		c0.5,1.2,1.7,1.8,2.9,2.1c1.5,0.2,3.2,0,4.3-1h0c0.2-0.2,0.3-0.4,0.4-0.5c0.3-0.6,0.4-1.5,0.2-2.2c-0.1-0.2-0.1-0.4-0.2-0.5
		c-1.2-1.6-3.4-1.1-5.2-1.4c-0.2,0-0.6-0.1-0.8-0.2c-0.2,0-0.3-0.1-0.3-0.1c0,0,0,0,0,0c0,0,0,0,0,0c0,0-0.1-0.1-0.1-0.1
		c0,0,0,0,0-0.1c1.6-0.6,3.5-0.6,5.3-0.8c0.6-0.1,1.2-0.1,1.5-0.5c0,0,0,0,0.1-0.1c0,0,0,0,0,0c0,0,0,0,0,0c0-0.1,0.1-0.1,0.1-0.2
		C53.9,10.5,53.9,10.4,53.9,10.3L53.9,10.3C53.9,10.3,53.9,10.3,53.9,10.3L53.9,10.3L53.9,10.3z"/>
	<path class="st0" d="M41.2,12.2L41.2,12.2c0,0-0.3-3.2-4.8-6.6c0,0-0.1,0-0.1-0.1c0,0,0,0-0.1,0c-0.3-0.2-0.7-0.5-1-0.7
		c-1.4-1-2.9-1.7-4.1-2.2C27.7,1.1,22.6,0,18,1.4c-0.7,0.2-0.9,0.9-1.1,1.5c0,0.1-0.1,0.2,0,0.4c0.2,0.3,0.6,0.3,1,0.3
		c0.2,0,0.5,0,0.7,0c0.1,0,0.3-0.1,0.3-0.2c0,0,0-0.1,0-0.1c-0.3-0.4-0.8-0.2-1.1-0.4c0,0,0,0,0,0c0,0,0,0,0.1-0.1h0
		c0.1-0.1,0.3-0.2,0.5-0.2c0,0,0.1,0,0.1,0c0,0,0.1,0,0.1,0c0,0,0.1,0,0.1,0c3.7-0.6,7.3,0.1,10.5,1.3c3.7,1.5,7.9,3.8,9.7,7.8
		c0,0.1,0.1,0.2,0.1,0.4c0,0,0,0,0,0c0,0,0,0,0,0.1c0,0.1,0,0.2,0.1,0.2c0,0,0,0,0,0.1c0.3,1.4-0.1,3-1.2,3.9
		c-2.5,2-6.1,2.2-9.3,1.6l-0.1-4.5c0-0.2,0-0.8,0-1c0-0.1,0,0,0-0.1c0.4,0,0.5,0,0.7,0c1.4,0.1,3.5,0.3,5,1.1c0,0,0.1,0,0.1,0.1v0
		c0,0,0,0,0,0c0,0.1-0.1,0.2-0.1,0.2c0,0,0,0,0,0c0,0,0,0.1-0.1,0.1c-0.1,0.2-0.2,0.2-0.2,0.3c-0.3,0.2-0.7,0.3-0.7,0.7c0,0,0,0,0,0
		c0.3,0.1,0.7,0.2,1,0.2c0,0,0.2,0,0.4-0.1c0.5-0.3,1.1-0.7,1.2-1.3c0.1-0.5,0-0.9-0.3-1.3c-0.1-0.2-0.4-0.4-0.5-0.5
		c-1.2-0.9-2.8-1.3-4.3-1.4c-0.9-0.1-1.6-0.1-2.1-0.1h-0.1l-0.1,0c0,0-0.1,0-0.1,0l-0.1-2.6c-0.1-0.7-0.4-1.4-1.1-1.7
		c-0.7,1.3-0.7,4.2-0.8,4.4c-0.1,0-0.2,0-0.3,0.1c-0.5,0.1-1,0.2-1.5,0.3c-0.4,0.1-0.9,0.2-1.3,0.4c-0.8,0.3-1.6,0.7-2.3,1.4
		c0,0.1-0.1,0.1-0.2,0.2c-0.2,0.3-0.3,0.6-0.2,0.9c0,0,0,0.1,0.1,0.2c1.2,2.1,3.5,3.7,5.6,4.7c0.2,0.7,0.2,1.5,0.6,2.1
		c0.4,0.1,0.9,0.1,1.2,0c0.4-0.2,0.4-0.7,0.4-1.1c0,0,0,0,0.1,0C32,20.3,36,20,38.9,17.8C40.7,16.5,41.6,14.5,41.2,12.2 M26,17
		c-1.8-0.6-3.6-1.6-4.9-3.3c0,0,0-0.1,0-0.1c0,0,0,0,0,0c0,0,0,0,0,0c-0.1-0.3,0.3-0.6,0.6-0.6c0.7-0.2,1.4-0.4,2.2-0.5
		c1.3-0.2,2-0.2,2.3-0.3C26.1,13.8,26,15.4,26,17"/>
</g>
</svg>
